<?xml version="1.0" standalone="no"?>
<!DOCTYPE svg PUBLIC "-//W3C//DTD SVG 20010904//EN"
 "http://www.w3.org/TR/2001/REC-SVG-20010904/DTD/svg10.dtd">
<svg version="1.0" xmlns="http://www.w3.org/2000/svg"
 width="3360.000000pt" height="1280.000000pt" viewBox="0 0 3360.000000 1280.000000"
 preserveAspectRatio="xMidYMid meet">

<g transform="translate(0.000000,1280.000000) scale(0.100000,-0.100000)"
fill="#000000" stroke="none">
<path d="M4810 12180 l-1235 -6 -85 -27 c-47 -15 -110 -39 -140 -54 -300 -145
-514 -443 -550 -766 -7 -60 -10 -499 -8 -1266 3 -1290 -1 -1203 61 -1187 25 6
27 10 27 58 0 85 7 61 30 -107 14 -97 29 -180 45 -245 7 -30 16 -67 19 -82 l6
-28 -1152 -2 -1153 -3 -54 -22 c-164 -67 -285 -218 -311 -388 -7 -48 -10 -588
-8 -1750 l3 -1680 23 -54 c57 -134 157 -228 282 -265 48 -14 196 -16 1352 -16
714 0 1298 -2 1298 -5 0 -2 -17 -64 -38 -137 -21 -73 -45 -166 -52 -207 -13
-69 -15 -73 -28 -53 -18 27 -77 31 -86 6 -3 -9 -6 -577 -6 -1263 1 -1178 2
-1251 20 -1338 23 -117 52 -198 103 -293 54 -101 62 -114 130 -198 147 -182
381 -319 602 -352 49 -7 4069 -10 13100 -8 12662 3 13032 4 13100 22 88 23
232 90 316 146 86 58 228 205 284 294 55 89 108 210 138 313 l22 78 3 1308 3
1307 -25 11 c-31 14 -54 6 -65 -23 -9 -22 -9 -22 -16 7 -30 124 -85 329 -100
367 -7 17 56 18 1121 20 l1129 3 67 32 c94 44 161 110 206 202 l37 76 3 1705
c2 1216 0 1724 -8 1770 -22 125 -120 267 -231 332 -102 60 -64 58 -1274 58
-704 0 -1104 3 -1100 10 16 25 71 332 66 364 -1 4 13 15 31 25 l33 16 0 1240
0 1240 -34 110 c-52 169 -109 272 -219 394 -141 157 -350 271 -562 307 -51 9
-23195 12 -25120 4z m405 -120 c-271 -63 -489 -142 -714 -261 -156 -82 -390
-228 -431 -269 -3 -3 -27 -23 -55 -45 -69 -55 -106 -88 -205 -180 -106 -100
-92 -86 -175 -180 -39 -44 -72 -82 -76 -85 -3 -3 -18 -23 -34 -45 -17 -22 -32
-42 -35 -45 -17 -16 -150 -208 -150 -215 0 -3 -15 -28 -34 -57 -89 -140 -225
-440 -285 -628 -41 -130 -80 -311 -106 -496 -14 -104 -28 -193 -30 -199 -7
-18 2 1959 9 1998 53 292 265 562 528 672 156 65 127 63 1063 63 l850 0 -120
-28z m22602 10 c66 -6 129 -12 140 -14 10 -2 41 -7 68 -10 178 -25 458 -91
615 -146 235 -82 453 -186 648 -311 185 -119 318 -226 483 -389 377 -374 601
-763 759 -1315 5 -16 11 -41 14 -55 2 -14 13 -72 24 -130 34 -175 43 -258 49
-435 10 -301 -27 -591 -114 -885 -48 -164 -74 -230 -161 -420 -50 -110 -234
-419 -262 -440 -3 -3 -19 -23 -35 -45 -59 -80 -195 -232 -291 -326 -450 -437
-1026 -708 -1704 -802 l-155 -21 -10930 -4 c-8012 -2 -10986 0 -11140 8 -401
22 -628 65 -970 188 -166 59 -285 114 -465 215 -71 39 -272 181 -372 262 -378
307 -672 707 -853 1165 -88 221 -166 561 -186 805 -33 415 45 895 211 1300 54
133 188 379 271 500 30 43 59 85 64 93 6 9 15 21 20 28 6 6 17 20 25 30 215
267 361 405 641 607 58 43 109 77 112 77 4 0 31 16 61 35 93 59 278 153 387
195 57 22 113 45 124 49 115 50 465 136 670 165 61 8 128 18 150 22 115 20
21879 24 22102 4z m2170 -1 c108 -27 192 -64 285 -127 202 -137 338 -360 377
-617 9 -59 12 -279 9 -835 l-3 -755 -27 110 c-120 482 -343 912 -658 1269
-214 243 -441 430 -730 602 -126 76 -161 94 -330 172 -110 50 -358 136 -465
160 -187 43 -226 41 643 41 796 1 815 1 899 -20z m-27149 -5689 l-1 -2000
-861 -1 c-473 0 -964 0 -1090 1 l-229 1 -61 28 c-87 41 -146 103 -179 188 -15
39 -17 195 -18 1755 l-2 1713 21 52 c41 100 89 157 183 215 76 47 58 47 1181
47 l1056 1 0 -2000z m181 1938 c102 -293 207 -514 332 -704 47 -71 158 -222
184 -250 5 -7 36 -43 68 -80 110 -132 294 -304 452 -423 431 -326 956 -533
1515 -597 36 -4 56 -9 45 -11 -428 -76 -854 -247 -1205 -484 -480 -324 -822
-731 -1055 -1258 l-58 -131 -189 0 -188 0 0 2000 0 2000 39 0 c38 0 38 0 60
-62z m27761 -1938 l0 -2000 -70 0 c-38 0 -73 -1 -77 -2 -3 -2 -19 29 -35 67
-156 377 -352 672 -637 955 -190 190 -331 302 -556 441 -83 51 -315 170 -400
206 -199 83 -496 168 -710 203 -71 12 -131 23 -132 24 -1 1 41 10 95 20 188
34 497 129 657 201 399 181 649 349 925 625 187 186 289 313 430 534 108 171
233 442 301 654 l23 72 93 0 93 0 0 -2000z m2137 1966 c70 -32 138 -98 174
-167 50 -99 48 -40 49 -1830 0 -1509 -2 -1681 -16 -1729 -21 -71 -65 -137
-118 -177 -87 -66 -26 -63 -1132 -63 l-1004 0 0 1633 c0 897 -1 1797 -3 2000
l-2 367 995 -2 995 -3 62 -29z m-5332 -2119 c66 -4 179 -9 250 -12 488 -19
920 -129 1338 -339 476 -240 864 -597 1135 -1045 451 -746 546 -1559 276
-2369 -87 -263 -256 -582 -416 -787 -272 -349 -492 -545 -853 -757 -230 -136
-547 -264 -750 -304 -11 -2 -54 -11 -95 -19 -41 -8 -133 -25 -205 -37 l-130
-22 -11070 -4 c-7928 -2 -11110 0 -11210 8 -458 35 -829 144 -1210 355 -297
164 -612 430 -815 686 -28 35 -57 72 -65 82 -8 9 -15 21 -15 26 0 5 -4 11 -9
13 -4 2 -40 50 -78 108 -555 832 -625 1862 -189 2764 109 225 249 441 395 611
127 147 380 377 531 481 62 42 228 147 265 165 294 151 409 199 635 262 397
111 552 127 1325 136 730 8 20803 6 20960 -2z m-24386 -3592 c94 -325 208
-587 360 -820 14 -22 31 -48 36 -57 6 -9 39 -56 74 -105 189 -260 424 -493
676 -668 179 -125 434 -265 582 -321 35 -13 71 -28 80 -33 10 -6 79 -29 153
-51 74 -23 146 -46 160 -50 38 -13 -1313 -12 -1390 1 -360 58 -660 346 -768
737 -13 49 -16 162 -18 837 -3 765 -2 778 15 695 9 -47 28 -121 40 -165z
m27581 -511 c1 -823 2 -817 -61 -986 -34 -94 -39 -103 -96 -191 -95 -147 -224
-259 -388 -338 -181 -88 -127 -83 -935 -85 -393 -1 -706 0 -695 3 77 19 290
93 390 136 212 90 447 221 634 355 149 106 362 307 500 472 98 117 284 384
316 456 10 21 24 46 30 54 17 23 113 233 155 340 60 154 122 374 136 488 4 29
8 51 10 49 2 -2 4 -341 4 -753z"/>
<path d="M6273 10106 c-130 -25 -339 -107 -351 -138 -2 -4 -8 -8 -14 -8 -16 0
-97 -68 -166 -138 -160 -163 -253 -371 -267 -599 -48 -752 744 -1275 1410
-930 185 96 355 274 439 460 67 148 87 242 87 415 -1 218 -68 407 -209 584
-130 163 -315 284 -511 335 -120 30 -311 39 -418 19z m345 -76 c26 -5 81 -21
122 -36 225 -80 400 -236 502 -445 50 -103 67 -157 86 -282 47 -315 -89 -628
-361 -831 -89 -65 -202 -122 -297 -148 -122 -32 -328 -32 -450 1 -271 74 -496
271 -605 529 -18 43 -35 91 -39 107 -3 17 -9 41 -12 55 -14 59 -16 245 -4 318
37 229 186 463 380 595 64 43 218 112 288 128 122 28 273 32 390 9z"/>
<path d="M10410 10110 c-83 -12 -198 -45 -262 -73 -207 -94 -393 -286 -489
-503 -61 -138 -91 -355 -70 -494 15 -100 65 -258 103 -328 94 -176 261 -342
423 -422 378 -187 812 -121 1108 169 184 179 283 394 295 634 9 193 -21 335
-104 502 -54 108 -75 136 -179 240 -129 130 -279 217 -440 256 -100 23 -293
33 -385 19z m341 -85 c276 -58 528 -274 630 -539 17 -44 32 -88 34 -96 2 -8 9
-35 16 -60 7 -27 12 -99 12 -180 0 -117 -4 -147 -27 -225 -75 -252 -204 -414
-441 -557 -79 -48 -188 -83 -305 -98 -341 -44 -665 105 -859 395 -59 87 -84
141 -118 252 -22 76 -26 107 -27 228 -1 103 4 159 17 214 101 417 485 708 905
685 51 -2 125 -11 163 -19z"/>
<path d="M14600 10114 c-265 -50 -394 -116 -565 -289 -103 -103 -161 -191
-211 -314 -51 -126 -59 -175 -58 -361 0 -160 3 -182 27 -263 63 -206 166 -354
347 -500 74 -59 225 -140 298 -159 113 -29 188 -40 282 -40 272 -1 496 92 696
288 120 117 202 262 250 439 23 86 27 120 27 240 1 146 -7 191 -58 336 -63
180 -192 346 -356 456 -171 115 -317 162 -524 168 -71 2 -141 1 -155 -1z m281
-79 c67 -13 90 -20 164 -47 144 -55 300 -170 391 -290 211 -277 242 -638 82
-956 -104 -207 -336 -393 -565 -453 -84 -22 -260 -30 -366 -17 -119 16 -274
80 -382 160 -168 125 -307 330 -344 510 -6 29 -14 64 -17 78 -3 14 -6 77 -6
140 0 148 27 267 88 387 144 282 382 448 709 497 33 5 207 -2 246 -9z"/>
<path d="M18890 10117 c-3 -3 -26 -8 -52 -11 -147 -20 -317 -97 -443 -200
-150 -124 -251 -271 -309 -452 -164 -511 114 -1050 630 -1223 80 -27 103 -31
209 -40 234 -19 441 34 629 162 67 47 204 181 248 246 44 63 113 206 136 282
79 258 29 581 -126 812 -60 89 -175 202 -270 265 -120 79 -182 107 -309 138
-64 15 -332 32 -343 21z m287 -86 c175 -34 322 -111 444 -231 200 -196 291
-426 275 -695 -12 -199 -58 -325 -176 -485 -88 -118 -182 -196 -322 -266 -137
-69 -218 -88 -378 -88 -233 -1 -387 53 -577 203 -158 126 -265 304 -309 515
-21 105 -15 300 14 406 68 253 227 444 469 565 180 89 364 114 560 76z"/>
<path d="M22988 10104 c-196 -39 -360 -126 -503 -269 -81 -80 -135 -144 -135
-159 0 -3 -13 -27 -29 -53 -36 -58 -76 -163 -99 -258 -24 -100 -24 -347 1
-430 54 -181 139 -338 240 -444 233 -242 558 -349 882 -290 108 20 129 26 220
70 140 67 182 96 283 193 153 147 252 342 283 555 20 144 0 352 -46 456 -7 17
-16 40 -19 52 -4 12 -25 55 -47 95 -172 313 -496 501 -856 497 -59 -1 -138 -7
-175 -15z m382 -78 c181 -45 319 -125 447 -258 112 -118 177 -234 218 -390
123 -472 -159 -954 -637 -1089 -114 -32 -337 -33 -443 -2 -177 52 -307 129
-430 258 -295 306 -328 781 -78 1132 169 237 468 381 763 368 58 -3 130 -11
160 -19z"/>
<path d="M27275 10114 c-115 -14 -245 -53 -335 -102 -217 -117 -375 -298 -469
-539 -11 -29 -19 -53 -16 -53 2 0 -3 -19 -12 -42 -13 -34 -17 -79 -17 -218 0
-162 2 -182 28 -265 79 -261 233 -454 471 -590 83 -47 237 -100 325 -111 234
-30 478 25 674 150 74 47 208 176 262 253 58 79 116 206 145 313 20 73 24 108
24 245 -1 136 -4 172 -23 240 -24 85 -74 202 -104 247 -10 14 -18 29 -18 33 0
13 -121 154 -172 199 -94 86 -240 169 -348 200 -132 37 -296 53 -415 40z m313
-89 c153 -32 295 -109 418 -227 167 -160 248 -329 274 -570 17 -153 -9 -301
-81 -456 -96 -209 -294 -385 -519 -464 -145 -51 -363 -59 -515 -19 -323 85
-582 358 -649 683 -23 110 -21 277 4 384 68 290 288 536 574 641 137 50 337
62 494 28z"/>
<path d="M8369 9496 c-57 -16 -130 -65 -163 -109 -49 -66 -60 -98 -60 -187 -1
-103 21 -158 92 -229 89 -89 257 -117 374 -61 156 73 227 264 155 412 -31 64
-95 126 -164 159 -56 27 -168 34 -234 15z m224 -109 c84 -49 124 -145 102
-244 -16 -68 -53 -115 -117 -147 -166 -83 -369 48 -344 223 12 88 76 163 164
192 49 16 147 4 195 -24z"/>
<path d="M25326 9463 c-145 -44 -233 -171 -224 -321 6 -88 35 -148 99 -206 59
-53 94 -70 177 -86 128 -26 280 50 341 170 25 48 32 84 32 154 0 206 -217 353
-425 289z m177 -84 c47 -13 112 -70 138 -120 37 -74 21 -183 -37 -243 -54 -55
-108 -79 -179 -79 -75 1 -103 12 -156 60 -77 70 -99 163 -58 253 27 60 54 88
114 116 54 26 116 30 178 13z"/>
<path d="M1395 6930 c-159 -32 -280 -124 -352 -269 -34 -67 -38 -83 -41 -172
-5 -118 10 -173 70 -266 84 -131 225 -209 393 -220 156 -9 286 39 396 147 143
142 177 338 88 518 -94 191 -336 305 -554 262z m210 -96 c111 -28 209 -106
263 -209 24 -45 27 -61 27 -155 0 -96 -2 -110 -28 -158 -35 -66 -112 -141
-182 -177 -202 -102 -459 -17 -558 184 -29 60 -32 74 -32 156 0 80 4 97 30
149 86 169 292 260 480 210z"/>
<path d="M32083 6924 c-161 -35 -294 -148 -354 -302 -30 -77 -33 -224 -5 -297
74 -194 266 -325 477 -325 228 0 430 144 484 344 27 100 17 222 -24 309 -102
213 -338 324 -578 271z m224 -88 c119 -32 205 -99 264 -209 32 -58 34 -68 34
-157 0 -87 -3 -100 -32 -156 -37 -71 -119 -151 -189 -184 -202 -94 -453 -10
-550 184 -32 65 -36 82 -36 154 0 66 4 91 26 137 83 183 291 282 483 231z"/>
<path d="M6344 4079 c-152 -15 -315 -77 -429 -163 -285 -215 -416 -550 -354
-906 56 -322 307 -605 620 -699 374 -112 810 45 1014 364 103 160 136 271 142
475 4 141 2 164 -20 251 -63 243 -224 457 -427 567 -59 32 -255 110 -255 101
0 -1 -22 1 -50 5 -84 11 -167 13 -241 5z m322 -94 c120 -35 201 -76 289 -146
147 -116 232 -246 289 -440 l15 -49 -814 0 -813 0 14 54 c55 210 213 408 409
514 90 48 182 79 265 89 25 3 47 8 50 10 13 14 214 -9 296 -32z m609 -760 c3
-30 3 -75 0 -100 l-7 -45 -823 0 -823 0 -7 40 c-4 23 -4 68 0 100 l7 60 823 0
823 0 7 -55z m-17 -220 c1 -1 -11 -43 -28 -94 -164 -503 -751 -721 -1215 -452
-116 67 -242 207 -312 346 -24 48 -73 182 -73 201 0 9 1617 8 1628 -1z"/>
<path d="M10420 4080 c-511 -59 -865 -522 -789 -1033 79 -535 589 -876 1111
-743 224 57 411 189 533 376 172 264 192 615 51 905 -162 334 -536 538 -906
495z m266 -80 c238 -50 446 -204 567 -420 26 -47 77 -189 77 -215 0 -13 -102
-15 -811 -15 l-811 0 7 33 c13 61 70 192 110 252 42 64 157 185 215 228 175
127 431 181 646 137z m665 -755 c1 -19 1 -44 1 -55 0 -11 0 -40 -1 -65 l-1
-45 -830 0 -830 0 0 93 c0 52 3 97 7 100 3 4 377 7 830 7 l823 0 1 -35z m-279
-233 l266 -2 -12 -47 c-37 -139 -109 -263 -215 -371 -81 -84 -117 -111 -207
-156 -140 -70 -266 -97 -424 -91 -340 12 -631 232 -741 561 -16 47 -29 89 -29
94 0 13 551 17 1362 12z"/>
<path d="M14620 4079 c-66 -8 -168 -33 -205 -49 -11 -5 -41 -18 -67 -29 -224
-94 -418 -328 -490 -588 -32 -116 -32 -344 0 -463 46 -170 127 -307 248 -426
433 -423 1177 -291 1437 256 58 122 79 216 84 375 4 126 2 150 -21 240 -68
263 -228 470 -456 587 -57 30 -191 76 -250 87 -81 15 -206 19 -280 10z m319
-90 c134 -38 241 -95 349 -186 102 -87 196 -238 240 -385 l20 -68 -815 0 -815
0 6 35 c11 57 73 193 121 264 190 287 570 431 894 340z m622 -721 c0 -7 2 -22
5 -33 2 -11 1 -50 -2 -87 l-6 -68 -829 0 -829 0 0 100 0 100 830 0 c657 0 830
-3 831 -12z m-329 -257 l317 -1 -20 -71 c-59 -212 -223 -410 -425 -512 -134
-68 -356 -102 -499 -78 -277 47 -491 203 -615 451 -34 67 -70 171 -70 199 0 9
651 20 930 15 36 -1 208 -2 382 -3z"/>
<path d="M19010 4078 c-131 -13 -297 -73 -401 -144 -421 -289 -522 -869 -224
-1289 111 -157 276 -273 467 -331 310 -93 647 -15 882 205 61 57 156 189 194
270 58 125 73 191 79 347 7 172 -9 266 -69 402 -56 128 -107 204 -196 291 -97
94 -168 140 -295 190 -149 58 -278 75 -437 59z m289 -84 c238 -54 442 -213
550 -430 37 -74 71 -171 71 -201 0 -11 -146 -13 -810 -13 l-810 0 6 28 c11 43
52 149 78 200 115 226 379 404 646 436 56 6 199 -4 269 -20z m642 -749 c1 -19
1 -44 1 -55 0 -11 0 -40 -1 -65 l-1 -45 -824 0 -824 0 -6 23 c-3 12 -6 47 -6
77 0 30 3 65 6 78 l6 22 824 0 824 0 1 -35z m-219 -234 l206 -1 -15 -57 c-21
-86 -95 -229 -155 -303 -132 -160 -301 -260 -503 -296 -400 -71 -793 163 -925
550 -17 48 -30 92 -30 97 0 9 530 16 965 12 138 -1 343 -2 457 -2z"/>
<path d="M23065 4078 c-319 -40 -597 -253 -714 -550 -50 -126 -65 -209 -65
-348 0 -128 11 -200 46 -305 144 -424 563 -663 1023 -584 252 43 503 227 618
454 76 149 98 234 103 405 7 274 -78 493 -265 678 -190 189 -474 284 -746 250z
m322 -88 c105 -27 227 -88 318 -160 124 -99 201 -212 259 -377 l35 -103 -815
0 c-772 0 -815 1 -810 18 3 9 10 37 16 62 44 169 186 351 362 464 181 115 417
151 635 96z m627 -762 c3 -29 4 -69 2 -88 -3 -19 -5 -41 -5 -48 -1 -10 -170
-12 -828 -10 l-828 3 -3 65 c-2 36 0 80 3 98 l6 32 824 0 824 0 5 -52z m-16
-223 c1 -1 -11 -41 -27 -89 -94 -275 -301 -472 -577 -548 -108 -29 -327 -32
-424 -4 -141 41 -300 135 -391 232 -42 45 -107 139 -139 204 -25 49 -70 176
-70 197 0 10 78 13 403 15 402 3 1220 -2 1225 -7z"/>
<path d="M27320 4079 c-305 -27 -583 -215 -716 -484 -63 -128 -86 -223 -91
-383 -7 -172 16 -294 79 -424 111 -231 290 -389 528 -467 261 -84 526 -54 758
87 337 205 500 626 392 1019 -67 245 -245 461 -465 563 -105 49 -203 78 -290
85 -38 4 -79 7 -90 9 -11 1 -58 -1 -105 -5z m289 -90 c292 -75 505 -286 594
-586 l16 -53 -813 0 -814 0 10 42 c14 64 70 188 115 254 70 103 202 223 298
271 197 99 395 123 594 72z m621 -809 l0 -100 -824 0 -823 0 -7 54 c-3 30 -3
75 0 100 l7 46 823 0 824 0 0 -100z m-213 -170 l202 0 -20 -72 c-74 -269 -304
-496 -578 -570 -109 -30 -323 -30 -435 1 -203 55 -383 193 -498 382 -30 50
-98 226 -98 254 0 7 572 12 920 8 168 -1 396 -3 507 -3z"/>
<path d="M25465 3336 c-106 -26 -169 -76 -222 -179 -73 -140 -3 -332 150 -406
202 -99 442 28 464 245 4 37 -1 72 -16 125 -49 160 -214 254 -376 215z m162
-101 c44 -19 98 -67 121 -110 21 -40 21 -150 0 -191 -76 -143 -263 -174 -377
-62 -64 62 -82 133 -56 221 37 127 186 194 312 142z"/>
<path d="M8332 3330 c-64 -15 -157 -93 -192 -161 -62 -119 -27 -291 76 -375
166 -136 413 -88 508 100 23 45 28 70 29 128 1 127 -65 234 -177 288 -54 25
-75 30 -137 29 -41 -1 -89 -5 -107 -9z m203 -101 c84 -44 128 -114 127 -202
-1 -100 -53 -171 -151 -208 -95 -35 -198 -7 -264 71 -72 85 -60 224 28 304 62
57 186 74 260 35z"/>
</g>
</svg>
